<?xml version="1.0" encoding="UTF-8"?>
<svg width="70px" height="53px" viewBox="0 0 70 53" version="1.1" xmlns="http://www.w3.org/2000/svg" xmlns:xlink="http://www.w3.org/1999/xlink">
    <!-- Generator: sketchtool 47.1 (45422) - http://www.bohemiancoding.com/sketch -->
    <title>E34414D1-8275-4668-9471-D2C8E9C50C38</title>
    <desc>Created with sketchtool.</desc>
    <defs></defs>
    <g id="Page-1" stroke="none" stroke-width="1" fill="none" fill-rule="evenodd">
        <g id="Node_1280" transform="translate(-55.000000, -30.000000)" fill-rule="nonzero" fill="#FFFFFF">
            <g id="lofo_node" transform="translate(55.000000, 30.000000)">
                <path d="M69.3699756,29.0930066 C64.5505172,34.9615358 61.3251044,39.5263189 57.8948376,43.1007563 C56.0611046,45.0095744 54.0523749,47.0571244 51.9192399,47.9003808 C51.4264383,48.0852382 50.9049419,48.1803205 50.3791032,48.1811876 C48.5901561,48.1811876 47.0276265,47.0997469 46.1493256,45.483436 C46.1012222,45.410727 46.0531189,45.3304965 46.0050155,45.2427444 C45.6732682,44.6393439 45.3174693,43.9189406 44.9268369,43.0572981 C42.0116078,36.605426 40.0526401,31.7924297 38.1583632,27.1382231 L38.1417759,27.0964363 L38.1417759,27.0964363 L37.8465208,26.3710186 L37.8465208,26.3710186 L37.4998449,25.5202406 L37.4832576,25.4784539 L37.4832576,25.4784539 L36.8122987,23.8312208 C34.9039225,19.1385703 32.9258795,14.2829515 29.9724994,7.75084895 C28.1346195,3.68834246 26.398752,-0.148515657 21.249205,0.00442379754 C17.0849474,0.128948271 13.186917,4.52992732 11.1914572,7.1817136 C11.0504646,7.36891818 10.9202538,7.54191526 10.8008248,7.69819766 C6.90859994,12.7928365 -2.51053437,27.4741884 0.630282888,23.6515378 C5.44974133,17.7830086 8.67515414,13.2182255 12.1054209,9.64378809 C13.9391539,7.73413425 15.9470543,5.68324124 18.0801892,4.84332784 C18.5729909,4.65847046 19.0944872,4.56338815 19.6203259,4.56252098 C21.409273,4.56252098 22.9718027,5.64396171 23.8501036,7.26027266 C23.8982069,7.33298158 23.9463103,7.41321212 23.9944136,7.50096426 C24.3261609,8.10436473 24.6819598,8.82476806 25.0725922,9.68641056 C27.9911388,16.1366112 29.9501065,20.9496074 31.8443834,25.6046498 L31.8609707,25.6464366 L31.8609707,25.6464366 L32.1562258,26.3718543 L32.1562258,26.3718543 L32.5029017,27.2226323 L32.5194891,27.264419 L32.5194891,27.264419 L33.1904479,28.9116521 C35.0979947,33.6068098 37.0768672,38.4615928 40.0327353,44.9928597 C41.8648096,49.0578734 43.6015066,52.8913885 48.7502242,52.7351061 C52.9177992,52.6114174 56.8141709,48.2096026 58.807972,45.5586521 C58.9489646,45.3714475 59.0791754,45.1984504 59.1986044,45.042168 C63.0916586,39.9483649 72.5099635,25.2686845 69.3699756,29.0930066 Z" id="_Path_"></path>
            </g>
        </g>
    </g>
</svg>